<svg width="18" height="19" xmlns="http://www.w3.org/2000/svg" xmlns:xlink="http://www.w3.org/1999/xlink" xml:space="preserve" overflow="hidden"><g transform="translate(-364 -14261)"><path d="M16.6953 2.66667 6.46667 2.66667C5.84211 2.66995 5.33661 3.17544 5.33333 3.8L5.33333 11.7533C5.33661 12.3779 5.84211 12.8834 6.46667 12.8867L16.6953 12.8867C17.3199 12.8834 17.8254 12.3779 17.8287 11.7533L17.8287 3.8C17.8254 3.17544 17.3199 2.66995 16.6953 2.66667ZM16.6953 11.7567 6.46667 11.7567 6.46667 3.8 16.6953 3.8Z" fill="#0043CE" transform="matrix(1 0 0 1.05556 363.211 14260.6)"/><path d="M10.4233 16.1507 2.46667 16.1507 2.46667 10.4667 3.6 10.4667 3.6 9.33333 2.46667 9.33333C1.84211 9.3366 1.33661 9.84213 1.33333 10.4667L1.33333 16.148C1.33661 16.7725 1.84211 17.2781 2.46667 17.2813L10.42 17.2813C11.0445 17.2781 11.5501 16.7725 11.5533 16.148L11.5533 15.0147 10.42 15.0147Z" fill="#0043CE" transform="matrix(1 0 0 1.05556 363.803 14259.5)"/></g></svg>